<svg id="logo-56" width="80" height="80" viewBox="0 0 50 50" fill="none" xmlns="http://www.w3.org/2000/svg"><path class="stroke" d="M40 33.03C44.6944 33.03 48.5 29.4348 48.5 25C48.5 20.5651 44.6944 16.97 40 16.97C35.3056 16.97 31.5 20.5651 31.5 25C31.5 29.4348 35.3056 33.03 40 33.03Z" stroke="#ffffff" stroke-width="0.5" stroke-miterlimit="10"></path><path class="stroke" d="M38.64 33.48C44.1186 33.48 48.56 29.6834 48.56 25C48.56 20.3166 44.1186 16.52 38.64 16.52C33.1613 16.52 28.72 20.3166 28.72 25C28.72 29.6834 33.1613 33.48 38.64 33.48Z" stroke="#ffffff" stroke-width="0.5" stroke-miterlimit="10"></path><path class="stroke" d="M37.2701 33.9301C43.533 33.9301 48.6101 29.932 48.6101 25.0001C48.6101 20.0682 43.533 16.0701 37.2701 16.0701C31.0071 16.0701 25.9301 20.0682 25.9301 25.0001C25.9301 29.932 31.0071 33.9301 37.2701 33.9301Z" stroke="#ffffff" stroke-width="0.5" stroke-miterlimit="10"></path><path class="stroke" d="M35.91 34.3801C42.9572 34.3801 48.67 30.1805 48.67 25.0001C48.67 19.8197 42.9572 15.6201 35.91 15.6201C28.8629 15.6201 23.15 19.8197 23.15 25.0001C23.15 30.1805 28.8629 34.3801 35.91 34.3801Z" stroke="#ffffff" stroke-width="0.5" stroke-miterlimit="10"></path><path class="stroke" d="M34.55 34.8299C42.3759 34.8299 48.72 30.4289 48.72 24.9999C48.72 19.571 42.3759 15.1699 34.55 15.1699C26.7241 15.1699 20.38 19.571 20.38 24.9999C20.38 30.4289 26.7241 34.8299 34.55 34.8299Z" stroke="#ffffff" stroke-width="0.5" stroke-miterlimit="10"></path><path class="stroke" d="M33.18 35.28C41.7901 35.28 48.77 30.6775 48.77 25C48.77 19.3225 41.7901 14.72 33.18 14.72C24.5698 14.72 17.59 19.3225 17.59 25C17.59 30.6775 24.5698 35.28 33.18 35.28Z" stroke="#ffffff" stroke-width="0.5" stroke-miterlimit="10"></path><path class="stroke" d="M31.8201 35.72C41.2144 35.72 48.8301 30.9205 48.8301 25C48.8301 19.0795 41.2144 14.28 31.8201 14.28C22.4257 14.28 14.8101 19.0795 14.8101 25C14.8101 30.9205 22.4257 35.72 31.8201 35.72Z" stroke="#ffffff" stroke-width="0.5" stroke-miterlimit="10"></path><path class="stroke" d="M30.45 36.1701C40.6286 36.1701 48.88 31.1691 48.88 25.0001C48.88 18.8311 40.6286 13.8301 30.45 13.8301C20.2714 13.8301 12.02 18.8311 12.02 25.0001C12.02 31.1691 20.2714 36.1701 30.45 36.1701Z" stroke="#ffffff" stroke-width="0.5" stroke-miterlimit="10"></path><path class="stroke" d="M29.09 36.6199C40.0528 36.6199 48.94 31.4174 48.94 24.9999C48.94 18.5823 40.0528 13.3799 29.09 13.3799C18.1271 13.3799 9.23999 18.5823 9.23999 24.9999C9.23999 31.4174 18.1271 36.6199 29.09 36.6199Z" stroke="#ffffff" stroke-width="0.5" stroke-miterlimit="10"></path><path class="stroke" d="M27.73 37.0699C39.4771 37.0699 49 31.666 49 24.9999C49 18.3339 39.4771 12.9299 27.73 12.9299C15.9829 12.9299 6.46002 18.3339 6.46002 24.9999C6.46002 31.666 15.9829 37.0699 27.73 37.0699Z" stroke="#ffffff" stroke-width="0.5" stroke-miterlimit="10"></path><path class="stroke" d="M26.36 37.52C38.8913 37.52 49.05 31.9146 49.05 25C49.05 18.0854 38.8913 12.48 26.36 12.48C13.8286 12.48 3.66998 18.0854 3.66998 25C3.66998 31.9146 13.8286 37.52 26.36 37.52Z" stroke="#ffffff" stroke-width="0.5" stroke-miterlimit="10"></path><path class="stroke" d="M25 37.97C38.3101 37.97 49.1 32.1632 49.1 25C49.1 17.8369 38.3101 12.03 25 12.03C11.69 12.03 0.900024 17.8369 0.900024 25C0.900024 32.1632 11.69 37.97 25 37.97Z" stroke="#ffffff" stroke-width="0.5" stroke-miterlimit="10"></path></svg>