<svg width="37" height="37" viewBox="0 0 37 37" fill="none" xmlns="http://www.w3.org/2000/svg">
<path d="M18.5 23.125C17.5853 23.125 16.6911 22.8538 15.9305 22.3455C15.1699 21.8373 14.5771 21.115 14.2271 20.2699C13.877 19.4248 13.7854 18.4949 13.9639 17.5977C14.1423 16.7005 14.5828 15.8765 15.2296 15.2296C15.8765 14.5828 16.7005 14.1423 17.5977 13.9639C18.4949 13.7854 19.4248 13.877 20.2699 14.2271C21.115 14.5771 21.8373 15.1699 22.3455 15.9305C22.8538 16.6911 23.125 17.5853 23.125 18.5C23.1235 19.7262 22.6357 20.9017 21.7687 21.7687C20.9017 22.6357 19.7262 23.1235 18.5 23.125ZM18.5 16.1875C18.0426 16.1875 17.5955 16.3231 17.2152 16.5772C16.835 16.8313 16.5386 17.1925 16.3635 17.615C16.1885 18.0376 16.1427 18.5026 16.2319 18.9511C16.3212 19.3997 16.5414 19.8118 16.8648 20.1352C17.1882 20.4586 17.6003 20.6788 18.0489 20.7681C18.4974 20.8573 18.9624 20.8115 19.385 20.6365C19.8075 20.4614 20.1687 20.165 20.4228 19.7848C20.6769 19.4045 20.8125 18.9574 20.8125 18.5C20.8119 17.8869 20.5681 17.299 20.1345 16.8655C19.701 16.4319 19.1131 16.1881 18.5 16.1875Z" fill="white"/>
<path d="M5.78125 23.125C4.86651 23.125 3.97232 22.8538 3.21174 22.3455C2.45116 21.8373 1.85836 21.115 1.50831 20.2699C1.15825 19.4248 1.06666 18.4949 1.24512 17.5977C1.42358 16.7005 1.86407 15.8765 2.51088 15.2296C3.1577 14.5828 3.9818 14.1423 4.87896 13.9639C5.77612 13.7854 6.70605 13.877 7.55116 14.2271C8.39627 14.5771 9.1186 15.1699 9.6268 15.9305C10.135 16.6911 10.4063 17.5853 10.4063 18.5C10.4047 19.7262 9.91696 20.9017 9.04993 21.7687C8.18291 22.6357 7.00741 23.1235 5.78125 23.125ZM5.78125 16.1875C5.32388 16.1875 4.87678 16.3231 4.4965 16.5772C4.11621 16.8313 3.81981 17.1925 3.64478 17.615C3.46975 18.0376 3.42396 18.5026 3.51319 18.9511C3.60241 19.3997 3.82266 19.8118 4.14607 20.1352C4.46948 20.4586 4.88152 20.6788 5.33011 20.7681C5.77869 20.8573 6.24365 20.8115 6.66621 20.6365C7.08876 20.4614 7.44992 20.165 7.70403 19.7848C7.95813 19.4045 8.09375 18.9574 8.09375 18.5C8.09314 17.8869 7.84931 17.299 7.41576 16.8655C6.98221 16.4319 6.39438 16.1881 5.78125 16.1875Z" fill="white"/>
<path d="M11.5625 35.8438C10.6478 35.8438 9.75357 35.5725 8.99299 35.0643C8.23241 34.5561 7.63961 33.8338 7.28956 32.9887C6.9395 32.1436 6.84791 31.2136 7.02637 30.3165C7.20483 29.4193 7.64531 28.5952 8.29213 27.9484C8.93895 27.3016 9.76305 26.8611 10.6602 26.6826C11.5574 26.5042 12.4873 26.5958 13.3324 26.9458C14.1775 27.2959 14.8998 27.8887 15.408 28.6492C15.9163 29.4098 16.1875 30.304 16.1875 31.2188C16.186 32.4449 15.6982 33.6204 14.8312 34.4874C13.9642 35.3545 12.7887 35.8422 11.5625 35.8438ZM11.5625 28.9063C11.1051 28.9063 10.658 29.0419 10.2777 29.296C9.89746 29.5501 9.60106 29.9112 9.42603 30.3338C9.251 30.7564 9.20521 31.2213 9.29444 31.6699C9.38366 32.1185 9.60391 32.5305 9.92732 32.8539C10.2507 33.1773 10.6628 33.3976 11.1114 33.4868C11.5599 33.576 12.0249 33.5303 12.4475 33.3552C12.87 33.1802 13.2312 32.8838 13.4853 32.5035C13.7394 32.1232 13.875 31.6761 13.875 31.2188C13.8744 30.6056 13.6306 30.0178 13.197 29.5842C12.7635 29.1507 12.1756 28.9069 11.5625 28.9063Z" fill="white"/>
<path d="M25.4375 35.8438C24.5228 35.8438 23.6286 35.5725 22.868 35.0643C22.1074 34.5561 21.5146 33.8338 21.1646 32.9887C20.8145 32.1436 20.7229 31.2136 20.9014 30.3165C21.0798 29.4193 21.5203 28.5952 22.1671 27.9484C22.814 27.3016 23.638 26.8611 24.5352 26.6826C25.4324 26.5042 26.3623 26.5958 27.2074 26.9458C28.0525 27.2959 28.7748 27.8887 29.283 28.6492C29.7913 29.4098 30.0625 30.304 30.0625 31.2188C30.061 32.4449 29.5732 33.6204 28.7062 34.4874C27.8392 35.3545 26.6637 35.8422 25.4375 35.8438ZM25.4375 28.9063C24.9801 28.9063 24.533 29.0419 24.1527 29.296C23.7725 29.5501 23.4761 29.9112 23.301 30.3338C23.126 30.7564 23.0802 31.2213 23.1694 31.6699C23.2587 32.1185 23.4789 32.5305 23.8023 32.8539C24.1257 33.1773 24.5378 33.3976 24.9864 33.4868C25.4349 33.576 25.8999 33.5303 26.3225 33.3552C26.745 33.1802 27.1062 32.8838 27.3603 32.5035C27.6144 32.1232 27.75 31.6761 27.75 31.2188C27.7494 30.6056 27.5056 30.0178 27.072 29.5842C26.6385 29.1507 26.0506 28.9069 25.4375 28.9063Z" fill="white"/>
<path d="M31.2188 23.125C30.304 23.125 29.4098 22.8538 28.6492 22.3455C27.8887 21.8373 27.2959 21.115 26.9458 20.2699C26.5958 19.4248 26.5042 18.4949 26.6826 17.5977C26.8611 16.7005 27.3016 15.8765 27.9484 15.2296C28.5952 14.5828 29.4193 14.1423 30.3165 13.9639C31.2136 13.7854 32.1436 13.877 32.9887 14.2271C33.8338 14.5771 34.5561 15.1699 35.0643 15.9305C35.5725 16.6911 35.8438 17.5853 35.8438 18.5C35.8422 19.7262 35.3545 20.9017 34.4874 21.7687C33.6204 22.6357 32.4449 23.1235 31.2188 23.125ZM31.2188 16.1875C30.7614 16.1875 30.3143 16.3231 29.934 16.5772C29.5537 16.8313 29.2573 17.1925 29.0823 17.615C28.9073 18.0376 28.8615 18.5026 28.9507 18.9511C29.0399 19.3997 29.2602 19.8118 29.5836 20.1352C29.907 20.4586 30.319 20.6788 30.7676 20.7681C31.2162 20.8573 31.6812 20.8115 32.1037 20.6365C32.5263 20.4614 32.8874 20.165 33.1415 19.7848C33.3956 19.4045 33.5313 18.9574 33.5313 18.5C33.5306 17.8869 33.2868 17.299 32.8533 16.8655C32.4197 16.4319 31.8319 16.1881 31.2188 16.1875Z" fill="white"/>
<path d="M25.4375 10.4063C24.5228 10.4063 23.6286 10.135 22.868 9.6268C22.1074 9.1186 21.5146 8.39627 21.1646 7.55116C20.8145 6.70605 20.7229 5.77612 20.9014 4.87896C21.0798 3.9818 21.5203 3.1577 22.1671 2.51088C22.814 1.86407 23.638 1.42358 24.5352 1.24512C25.4324 1.06666 26.3623 1.15825 27.2074 1.50831C28.0525 1.85836 28.7748 2.45116 29.283 3.21174C29.7913 3.97232 30.0625 4.86651 30.0625 5.78125C30.061 7.00741 29.5732 8.18291 28.7062 9.04993C27.8392 9.91696 26.6637 10.4047 25.4375 10.4063ZM25.4375 3.46875C24.9801 3.46875 24.533 3.60438 24.1527 3.85848C23.7725 4.11258 23.4761 4.47374 23.301 4.8963C23.126 5.31885 23.0802 5.78382 23.1694 6.2324C23.2587 6.68098 23.4789 7.09303 23.8023 7.41644C24.1257 7.73985 24.5378 7.96009 24.9864 8.04932C25.4349 8.13855 25.8999 8.09275 26.3225 7.91772C26.745 7.7427 27.1062 7.4463 27.3603 7.06601C27.6144 6.68572 27.75 6.23862 27.75 5.78125C27.7494 5.16813 27.5056 4.58029 27.072 4.14674C26.6385 3.7132 26.0506 3.46936 25.4375 3.46875Z" fill="white"/>
<path d="M11.5625 10.4063C10.6478 10.4063 9.75357 10.135 8.99299 9.6268C8.23241 9.1186 7.63961 8.39627 7.28956 7.55116C6.9395 6.70605 6.84791 5.77612 7.02637 4.87896C7.20483 3.9818 7.64531 3.1577 8.29213 2.51088C8.93895 1.86407 9.76305 1.42358 10.6602 1.24512C11.5574 1.06666 12.4873 1.15825 13.3324 1.50831C14.1775 1.85836 14.8998 2.45116 15.408 3.21174C15.9163 3.97232 16.1875 4.86651 16.1875 5.78125C16.186 7.00741 15.6982 8.18291 14.8312 9.04993C13.9642 9.91696 12.7887 10.4047 11.5625 10.4063ZM11.5625 3.46875C11.1051 3.46875 10.658 3.60438 10.2777 3.85848C9.89746 4.11258 9.60106 4.47374 9.42603 4.8963C9.251 5.31885 9.20521 5.78382 9.29444 6.2324C9.38366 6.68098 9.60391 7.09303 9.92732 7.41644C10.2507 7.73985 10.6628 7.96009 11.1114 8.04932C11.5599 8.13855 12.0249 8.09275 12.4475 7.91772C12.87 7.7427 13.2312 7.4463 13.4853 7.06601C13.7394 6.68572 13.875 6.23862 13.875 5.78125C13.8744 5.16813 13.6306 4.58029 13.197 4.14674C12.7635 3.7132 12.1756 3.46936 11.5625 3.46875Z" fill="white"/>
</svg>
