<svg width="37" height="37" viewBox="0 0 37 37" fill="none" xmlns="http://www.w3.org/2000/svg">
<path d="M35.7867 20.9271C35.6028 21.0652 35.3716 21.1246 35.1439 21.0923C34.9163 21.0599 34.7108 20.9385 34.5726 20.7547C33.8487 19.7819 32.9066 18.9926 31.822 18.4504C30.7374 17.9082 29.5407 17.6281 28.3281 17.6328C28.0981 17.6328 27.8776 17.5414 27.7149 17.3788C27.5523 17.2162 27.4609 16.9956 27.4609 16.7656C27.4609 16.5356 27.5523 16.315 27.7149 16.1524C27.8776 15.9898 28.0981 15.8984 28.3281 15.8984C29.0411 15.8983 29.7393 15.6953 30.3412 15.3132C30.9431 14.9311 31.4239 14.3857 31.7275 13.7406C32.0311 13.0955 32.1448 12.3773 32.0556 11.67C31.9663 10.9627 31.6776 10.2953 31.2233 9.74589C30.7689 9.19645 30.1677 8.78761 29.4897 8.56708C28.8117 8.34655 28.0849 8.32345 27.3943 8.50046C26.7037 8.67748 26.0777 9.04731 25.5893 9.56677C25.101 10.0862 24.7706 10.7339 24.6365 11.4341C24.6153 11.546 24.5722 11.6526 24.5098 11.7479C24.4473 11.8431 24.3667 11.9251 24.2726 11.9892C24.1785 12.0533 24.0726 12.0983 23.9611 12.1215C23.8496 12.1447 23.7347 12.1457 23.6228 12.1244C23.5109 12.1032 23.4043 12.0601 23.309 11.9977C23.2138 11.9352 23.1318 11.8546 23.0677 11.7605C23.0036 11.6664 22.9587 11.5605 22.9355 11.449C22.9123 11.3375 22.9113 11.2226 22.9325 11.1107C23.0987 10.2362 23.475 9.41527 24.029 8.71852C24.5829 8.02176 25.2979 7.47009 26.1124 7.11099C26.9268 6.75189 27.8164 6.59614 28.7044 6.65714C29.5924 6.71814 30.4523 6.99406 31.2101 7.46115C31.9678 7.92824 32.6006 8.57249 33.0541 9.33845C33.5076 10.1044 33.7681 10.9691 33.8132 11.8581C33.8583 12.747 33.6867 13.6337 33.3131 14.4416C32.9395 15.2495 32.3751 15.9545 31.6685 16.4959C33.3782 17.1336 34.8678 18.2506 35.9591 19.713C36.0972 19.8969 36.1566 20.1281 36.1243 20.3558C36.0919 20.5834 35.9705 20.789 35.7867 20.9271ZM27.5996 30.8386C27.6502 30.9411 27.6801 31.0525 27.6875 31.1666C27.6949 31.2806 27.6798 31.395 27.6428 31.5032C27.6059 31.6113 27.5479 31.7111 27.4723 31.7968C27.3966 31.8825 27.3048 31.9524 27.2021 32.0025C27.0993 32.0525 26.9877 32.0818 26.8736 32.0886C26.7595 32.0954 26.6452 32.0795 26.5373 32.042C26.4293 32.0044 26.3299 31.9459 26.2446 31.8698C26.1594 31.7937 26.09 31.7014 26.0405 31.5984C25.3522 30.1845 24.2801 28.9926 22.9468 28.1587C21.6135 27.3249 20.0726 26.8828 18.5 26.8828C16.9274 26.8828 15.3865 27.3249 14.0532 28.1587C12.7199 28.9926 11.6479 30.1845 10.9595 31.5984C10.91 31.7014 10.8407 31.7937 10.7554 31.8698C10.6702 31.9459 10.5707 32.0044 10.4627 32.042C10.3548 32.0795 10.2405 32.0954 10.1264 32.0886C10.0123 32.0818 9.90069 32.0525 9.79794 32.0025C9.6952 31.9524 9.60337 31.8825 9.52774 31.7968C9.4521 31.7111 9.39414 31.6113 9.3572 31.5032C9.32026 31.395 9.30507 31.2806 9.31249 31.1666C9.31992 31.0525 9.34982 30.9411 9.40047 30.8386C10.5179 28.5229 12.4795 26.7229 14.8825 25.8082C13.6793 25.0279 12.7606 23.8794 12.2635 22.5342C11.7665 21.1889 11.7178 19.719 12.1247 18.3438C12.5315 16.9686 13.3722 15.7618 14.5212 14.9036C15.6701 14.0453 17.0658 13.5816 18.4999 13.5816C19.9341 13.5816 21.3298 14.0453 22.4787 14.9036C23.6277 15.7618 24.4683 16.9686 24.8752 18.3438C25.2821 19.719 25.2334 21.1889 24.7363 22.5342C24.2393 23.8794 23.3206 25.0279 22.1173 25.8082C24.5204 26.7229 26.4821 28.5229 27.5996 30.8386ZM18.5 25.1484C19.4719 25.1484 20.422 24.8602 21.2301 24.3203C22.0382 23.7803 22.6681 23.0128 23.04 22.1149C23.4119 21.217 23.5093 20.2289 23.3196 19.2757C23.13 18.3224 22.662 17.4468 21.9748 16.7596C21.2875 16.0723 20.4119 15.6043 19.4587 15.4147C18.5055 15.2251 17.5174 15.3224 16.6195 15.6944C15.7216 16.0663 14.9541 16.6961 14.4141 17.5043C13.8742 18.3124 13.5859 19.2625 13.5859 20.2344C13.5874 21.5372 14.1056 22.7863 15.0268 23.7075C15.9481 24.6288 17.1972 25.147 18.5 25.1484ZM8.67188 15.8984C7.95893 15.8983 7.26073 15.6953 6.65881 15.3132C6.05688 14.9311 5.57607 14.3857 5.27252 13.7406C4.96896 13.0955 4.85518 12.3773 4.94446 11.67C5.03375 10.9627 5.32241 10.2953 5.77675 9.74589C6.23109 9.19645 6.83236 8.78761 7.51035 8.56708C8.18834 8.34655 8.91507 8.32345 9.6057 8.50046C10.2963 8.67748 10.9223 9.04731 11.4107 9.56677C11.899 10.0862 12.2295 10.7339 12.3635 11.4341C12.4064 11.6601 12.5374 11.8598 12.7275 11.9892C12.9177 12.1186 13.1514 12.1672 13.3774 12.1243C13.6034 12.0813 13.803 11.9504 13.9324 11.7603C14.0619 11.5701 14.1105 11.3364 14.0675 11.1104C13.9012 10.236 13.5249 9.41505 12.9709 8.71834C12.417 8.02163 11.702 7.47 10.8875 7.11094C10.073 6.75189 9.18349 6.59617 8.29548 6.6572C7.40747 6.71823 6.5476 6.99417 5.78991 7.46127C5.03221 7.92836 4.3994 8.57262 3.94595 9.33856C3.4925 10.1045 3.23201 10.9692 3.1869 11.8581C3.1418 12.7471 3.31343 13.6337 3.68701 14.4416C4.0606 15.2495 4.62495 15.9545 5.33148 16.4959C3.62168 17.1336 2.13193 18.2506 1.04063 19.7132C0.972227 19.8042 0.922426 19.9079 0.894071 20.0182C0.865716 20.1284 0.859363 20.2432 0.875374 20.356C0.891385 20.4687 0.929447 20.5772 0.987387 20.6753C1.04533 20.7733 1.12201 20.859 1.21306 20.9274C1.30411 20.9958 1.40773 21.0456 1.51803 21.0739C1.62832 21.1023 1.74312 21.1087 1.85587 21.0926C1.96862 21.0766 2.07711 21.0386 2.17515 20.9806C2.27319 20.9227 2.35886 20.846 2.42726 20.755C3.15112 19.7821 4.09327 18.9927 5.17788 18.4505C6.26249 17.9082 7.45927 17.6281 8.67188 17.6328C8.90187 17.6328 9.12245 17.5414 9.28508 17.3788C9.44771 17.2162 9.53907 16.9956 9.53907 16.7656C9.53907 16.5356 9.44771 16.315 9.28508 16.1524C9.12245 15.9898 8.90187 15.8984 8.67188 15.8984Z" fill="white"/>
</svg>
