<svg width="37" height="37" viewBox="0 0 37 37" fill="none" xmlns="http://www.w3.org/2000/svg">
<path d="M4.625 2.3125H2.3125V32.375C2.3125 32.9883 2.55614 33.5765 2.98982 34.0102C3.42349 34.4439 4.01169 34.6875 4.625 34.6875H34.6875V32.375H4.625V2.3125Z" fill="white"/>
<path d="M34.6875 10.4062H26.5938V12.7188H30.7447L21.9688 21.4947L17.0084 16.5228C16.9009 16.4144 16.7731 16.3284 16.6322 16.2697C16.4913 16.211 16.3401 16.1808 16.1875 16.1808C16.0349 16.1808 15.8837 16.211 15.7428 16.2697C15.6019 16.3284 15.4741 16.4144 15.3666 16.5228L6.9375 24.9634L8.56781 26.5938L16.1875 18.9741L21.1478 23.9459C21.2553 24.0543 21.3832 24.1403 21.5241 24.199C21.665 24.2577 21.8161 24.288 21.9688 24.288C22.1214 24.288 22.2725 24.2577 22.4134 24.199C22.5543 24.1403 22.6822 24.0543 22.7897 23.9459L32.375 14.3491V18.5H34.6875V10.4062Z" fill="white"/>
</svg>
