<svg width="42" height="42" viewBox="0 0 42 42" fill="none" xmlns="http://www.w3.org/2000/svg">
<circle cx="21" cy="21" r="21" fill="#2E80CE"/>
<path d="M20.1719 34.2656H22.0469V31.6406C25.7344 31.3438 28.7969 29.2344 28.7969 25.4844V25.4531C28.7969 22.1875 26.5469 20.5312 22.5312 19.5625L22.0469 19.4531V12.2812C24.1562 12.5469 25.6562 13.8438 25.8594 15.9375V15.9688L28.5781 15.9531V15.9375C28.4531 12.5 25.6562 10.1562 22.0469 9.82812V7.1875H20.1719V9.82812C16.4688 10.1719 13.8281 12.4531 13.8281 15.7969V15.8281C13.8281 18.8906 15.9219 20.625 19.8125 21.5625L20.1719 21.6562V29.1719C17.4531 28.875 16.25 27.3281 15.9688 25.3906V25.3594L13.25 25.375V25.3906C13.375 29.0156 16.4531 31.2812 20.1719 31.625V34.2656ZM16.5469 15.6406V15.6094C16.5469 14.1094 17.7969 12.6094 20.1719 12.2812V19C17.4844 18.3438 16.5469 17.1562 16.5469 15.6406ZM22.1406 22.125C25.2344 22.875 26.0781 23.9688 26.0781 25.6719V25.7031C26.0781 27.5 24.9531 28.9688 22.0469 29.2031V22.1094L22.1406 22.125Z" fill="white"/>
</svg>
