<svg width="54" height="55" viewBox="0 0 54 55" fill="none" xmlns="http://www.w3.org/2000/svg">
<path d="M27 3.875C13.9535 3.875 3.375 14.4535 3.375 27.5C3.375 40.5465 13.9535 51.125 27 51.125C40.0465 51.125 50.625 40.5465 50.625 27.5C50.625 14.4535 40.0465 3.875 27 3.875ZM38.3537 21.6834C38.3695 21.9313 38.3695 22.1896 38.3695 22.4428C38.3695 30.1842 32.4738 39.1016 21.7002 39.1016C18.3779 39.1016 15.2982 38.1365 12.7037 36.4754C13.1783 36.5281 13.6318 36.5492 14.117 36.5492C16.8592 36.5492 19.3799 35.6211 21.3891 34.0496C18.8156 33.9969 16.6535 32.3094 15.9152 29.9891C16.817 30.1209 17.6291 30.1209 18.5572 29.8836C17.2322 29.6144 16.0411 28.8947 15.1865 27.8469C14.3319 26.7991 13.8664 25.4877 13.8691 24.1355V24.0617C14.6443 24.4994 15.5566 24.7684 16.5111 24.8053C15.7087 24.2705 15.0507 23.546 14.5954 22.6961C14.14 21.8461 13.9014 20.8969 13.9008 19.9326C13.9008 18.841 14.1855 17.8443 14.6971 16.9795C16.1678 18.7901 18.0031 20.2709 20.0837 21.3257C22.1643 22.3805 24.4435 22.9857 26.7732 23.102C25.9453 19.1205 28.9195 15.8984 32.4949 15.8984C34.1824 15.8984 35.7012 16.6051 36.7717 17.7441C38.0953 17.4963 39.3609 17.0006 40.4895 16.3361C40.0518 17.6914 39.1342 18.8357 37.916 19.5582C39.0973 19.4316 40.2363 19.1047 41.291 18.6459C40.4947 19.8166 39.498 20.8555 38.3537 21.6834Z" fill="#2E80CE"/>
</svg>
