<svg width="34" height="34" viewBox="0 0 34 34" fill="none" xmlns="http://www.w3.org/2000/svg">
<path d="M0 5.66667C0 4.16377 0.597022 2.72243 1.65973 1.65973C2.72243 0.597022 4.16377 0 5.66667 0H28.3333C29.8362 0 31.2776 0.597022 32.3403 1.65973C33.403 2.72243 34 4.16377 34 5.66667V28.3333C34 29.8362 33.403 31.2776 32.3403 32.3403C31.2776 33.403 29.8362 34 28.3333 34H5.66667C4.16377 34 2.72243 33.403 1.65973 32.3403C0.597022 31.2776 0 29.8362 0 28.3333V5.66667ZM5.66667 3.77778C5.1657 3.77778 4.68526 3.97679 4.33102 4.33102C3.97679 4.68526 3.77778 5.1657 3.77778 5.66667V28.3333C3.77778 28.8343 3.97679 29.3147 4.33102 29.669C4.68526 30.0232 5.1657 30.2222 5.66667 30.2222H28.3333C28.8343 30.2222 29.3147 30.0232 29.669 29.669C30.0232 29.3147 30.2222 28.8343 30.2222 28.3333V5.66667C30.2222 5.1657 30.0232 4.68526 29.669 4.33102C29.3147 3.97679 28.8343 3.77778 28.3333 3.77778H5.66667ZM17 7.55556C17.501 7.55556 17.9814 7.75456 18.3356 8.1088C18.6899 8.46303 18.8889 8.94348 18.8889 9.44444V24.5556C18.8889 25.0565 18.6899 25.537 18.3356 25.8912C17.9814 26.2454 17.501 26.4444 17 26.4444C16.499 26.4444 16.0186 26.2454 15.6644 25.8912C15.3101 25.537 15.1111 25.0565 15.1111 24.5556V9.44444C15.1111 8.94348 15.3101 8.46303 15.6644 8.1088C16.0186 7.75456 16.499 7.55556 17 7.55556ZM9.44444 13.2222C9.94541 13.2222 10.4259 13.4212 10.7801 13.7755C11.1343 14.1297 11.3333 14.6101 11.3333 15.1111V24.5556C11.3333 25.0565 11.1343 25.537 10.7801 25.8912C10.4259 26.2454 9.94541 26.4444 9.44444 26.4444C8.94348 26.4444 8.46303 26.2454 8.1088 25.8912C7.75456 25.537 7.55556 25.0565 7.55556 24.5556V15.1111C7.55556 14.6101 7.75456 14.1297 8.1088 13.7755C8.46303 13.4212 8.94348 13.2222 9.44444 13.2222ZM24.5556 18.8889C25.0565 18.8889 25.537 19.0879 25.8912 19.4421C26.2454 19.7964 26.4444 20.2768 26.4444 20.7778V24.5556C26.4444 25.0565 26.2454 25.537 25.8912 25.8912C25.537 26.2454 25.0565 26.4444 24.5556 26.4444C24.0546 26.4444 23.5741 26.2454 23.2199 25.8912C22.8657 25.537 22.6667 25.0565 22.6667 24.5556V20.7778C22.6667 20.2768 22.8657 19.7964 23.2199 19.4421C23.5741 19.0879 24.0546 18.8889 24.5556 18.8889Z" fill="white"/>
</svg>
